<?xml version="1.0" standalone="no"?>
<!DOCTYPE svg PUBLIC "-//W3C//DTD SVG 20010904//EN"
 "http://www.w3.org/TR/2001/REC-SVG-20010904/DTD/svg10.dtd">
<svg version="1.0" xmlns="http://www.w3.org/2000/svg"
 width="1024.000000pt" height="1024.000000pt" viewBox="0 0 1024.000000 1024.000000"
 preserveAspectRatio="xMidYMid meet">
<metadata>
Created by potrace 1.16, written by Peter Selinger 2001-2019
</metadata>
<g transform="translate(0.000000,1024.000000) scale(0.100000,-0.100000)"
fill="#000000" stroke="none">
<path d="M5730 8646 c0 -1 80 -82 178 -180 241 -242 378 -408 492 -595 l42
-70 24 17 c13 9 24 20 24 25 0 4 5 7 10 7 17 0 11 -22 -15 -56 l-26 -34 30
-74 c16 -41 35 -94 41 -117 7 -24 15 -37 19 -31 4 6 38 28 76 49 42 23 78 52
93 73 22 32 23 41 17 120 -10 131 -24 212 -44 245 -40 70 -387 303 -763 513
-109 61 -198 109 -198 108z"/>
<path d="M4170 8519 c-247 -139 -479 -293 -625 -416 l-70 -59 -6 -74 c-4 -41
-7 -124 -8 -184 -1 -140 13 -175 97 -228 32 -21 61 -38 64 -38 4 0 9 24 13 53
9 67 47 181 86 260 77 152 219 339 492 645 60 67 107 122 105 122 -2 0 -68
-37 -148 -81z"/>
<path d="M3338 7926 c-178 -175 -282 -342 -333 -533 -58 -214 -60 -569 -5
-784 21 -82 114 -280 160 -338 15 -20 31 -47 35 -61 14 -45 35 -68 115 -120
95 -62 94 -59 89 -264 -5 -158 -11 -176 -63 -176 -36 0 -61 -13 -53 -27 3 -5
-35 -50 -84 -99 -107 -106 -193 -235 -210 -315 -14 -69 -23 -79 -68 -79 -62 0
-62 1 -59 -189 l3 -173 197 -5 c108 -3 212 -3 231 1 19 4 63 25 97 47 79 51
221 114 325 144 44 13 98 29 120 35 41 12 69 30 47 30 -8 0 -12 19 -12 57 0
66 8 65 18 -2 l7 -47 28 28 c34 33 34 33 -27 177 -36 88 -43 114 -35 134 5 13
9 54 9 91 0 94 16 194 44 282 44 136 43 140 -25 205 -32 31 -59 61 -59 66 0
18 28 20 60 4 23 -12 45 -15 79 -10 45 6 50 4 99 -35 71 -55 71 -67 0 -18 -18
12 -44 18 -82 18 l-56 0 6 -27 c11 -45 23 -53 80 -53 l54 0 -49 -47 c-68 -66
-98 -164 -110 -361 -5 -77 -12 -145 -16 -151 -3 -6 -2 -11 2 -11 5 0 9 -9 10
-19 2 -28 106 -226 118 -226 6 0 26 12 44 27 l34 26 -36 43 c-47 54 -76 132
-84 224 -6 78 3 153 17 139 5 -5 10 -41 11 -81 1 -42 12 -102 26 -147 19 -62
34 -87 79 -135 34 -37 77 -71 112 -88 51 -25 68 -28 157 -28 110 0 117 2 206
71 87 67 127 111 177 198 48 83 65 88 38 10 -16 -49 -67 -123 -113 -165 -45
-42 -161 -119 -198 -132 l-34 -12 43 -50 43 -49 47 39 c26 22 70 57 99 78 29
21 82 63 119 95 61 53 67 62 82 122 9 36 19 92 21 125 2 32 9 71 15 86 9 21 9
32 -3 51 -8 12 -20 48 -27 78 -18 77 -75 199 -113 238 -52 55 -109 89 -167
100 -160 32 -330 23 -420 -23 -52 -26 -57 -38 -39 -77 l10 -24 57 28 c43 20
86 30 169 39 126 14 152 8 213 -47 19 -17 53 -41 75 -52 35 -18 37 -21 20 -27
-34 -11 -47 -20 -43 -30 2 -5 13 -9 26 -7 26 3 31 -22 6 -36 -14 -8 -14 -10 0
-21 9 -8 16 -20 16 -27 0 -25 -19 -15 -36 19 -25 50 -54 76 -114 105 -48 23
-69 26 -165 28 -72 2 -98 0 -75 -6 35 -7 35 -7 5 -9 -40 -1 -128 -49 -175 -95
-32 -31 -37 -33 -33 -15 9 32 71 90 128 119 43 22 63 25 150 25 89 0 106 -3
158 -29 46 -22 61 -25 72 -16 8 7 15 15 15 19 0 3 -28 19 -62 36 -56 27 -73
30 -153 29 -117 -1 -146 -8 -230 -59 -64 -39 -132 -111 -139 -147 -10 -50 -56
-93 -56 -53 0 28 51 119 97 173 39 45 44 56 37 80 -4 15 -8 32 -8 37 -1 6 -7
13 -15 16 -19 7 89 73 144 88 55 15 258 13 325 -3 59 -15 85 -24 156 -56 52
-24 68 -27 107 -17 32 9 34 1 7 -28 l-20 -21 31 -58 c47 -86 87 -214 94 -302
6 -70 0 -142 -21 -259 -5 -29 -4 -29 42 20 26 28 53 64 60 82 19 45 17 146 -6
302 -39 260 -102 484 -149 524 -10 10 -49 16 -111 19 -105 5 -137 17 -200 74
l-38 35 -49 -51 c-58 -61 -79 -67 -255 -77 l-127 -6 -88 84 c-49 47 -97 91
-107 99 -14 11 -63 16 -199 20 -132 4 -181 8 -185 18 -3 9 35 12 165 12 169 0
169 0 214 -29 24 -15 81 -62 126 -104 l83 -77 92 6 c195 12 240 30 278 109 18
38 21 59 19 125 -4 67 -8 82 -28 104 -36 38 -82 48 -211 44 l-115 -3 -5 -30
c-6 -34 -30 -43 -54 -20 -23 24 -20 35 14 42 27 5 30 9 26 37 -3 17 -8 52 -11
78 l-6 48 -80 41 c-44 23 -78 44 -75 46 3 3 20 -4 39 -16 34 -21 97 -29 97
-13 0 5 -31 39 -70 76 -67 65 -71 67 -107 60 -53 -9 -83 -22 -83 -33 0 -6 13
-25 29 -43 44 -51 54 -78 54 -140 -1 -42 -8 -69 -27 -104 -14 -26 -26 -48 -26
-49 0 -2 20 -6 46 -10 34 -5 48 -12 56 -29 7 -16 16 -22 29 -19 22 6 109 -60
109 -83 0 -31 -33 -28 -61 5 -21 25 -32 31 -48 26 -28 -8 -64 3 -58 19 3 8
-17 23 -49 39 l-55 27 -37 -19 c-129 -66 -307 -44 -398 50 -21 22 -48 39 -60
39 -32 0 -151 -38 -208 -67 -26 -13 -54 -22 -62 -19 -17 7 -18 43 -1 73 17 30
180 198 251 258 l58 50 -7 95 c-4 66 -11 97 -21 103 -18 10 -18 36 1 43 12 5
15 31 17 133 l2 126 3 -117 c2 -67 8 -118 13 -118 6 0 10 4 10 9 0 9 186 86
225 93 18 3 20 12 23 105 l3 102 -73 49 c-88 60 -125 98 -137 139 -5 17 -7 96
-4 175 4 84 2 152 -4 162 -8 14 -20 6 -85 -58z m599 -1735 c86 -95 155 -121
252 -95 38 11 116 16 246 19 l190 3 103 -54 c56 -29 116 -63 133 -75 28 -19
29 -23 15 -37 -14 -14 -17 -14 -34 1 -32 30 -200 107 -253 117 -60 12 -300 15
-344 5 -16 -4 -51 -13 -77 -22 -46 -14 -50 -13 -100 10 -34 15 -80 51 -128
100 l-74 77 -238 -6 c-218 -6 -238 -5 -238 11 0 15 21 16 246 12 l246 -5 55
-61z m597 -465 c42 -25 70 -57 100 -115 13 -25 18 -57 17 -132 0 -54 4 -101
10 -104 21 -13 -76 -126 -133 -156 -46 -24 -136 -25 -202 -3 -68 24 -140 97
-160 164 -47 158 25 312 171 366 53 20 145 10 197 -20z m291 -176 c20 -22 31
-98 16 -119 -13 -20 -126 -28 -146 -11 -12 10 -14 25 -9 64 8 62 13 68 66 77
24 3 46 7 49 8 3 0 14 -8 24 -19z m-119 -234 c-19 -63 -79 -125 -154 -158
-134 -59 -432 11 -347 82 13 11 19 10 38 -8 45 -42 127 -72 201 -72 113 0 185
47 228 150 40 95 41 96 45 78 3 -10 -3 -42 -11 -72z"/>
<path d="M4346 5700 c-43 -13 -104 -59 -127 -96 -11 -19 -23 -57 -26 -86 -15
-150 88 -267 236 -268 118 0 186 63 201 186 11 85 -8 140 -70 204 -61 62 -135
83 -214 60z m148 -124 c52 -55 73 -179 36 -216 -40 -40 -197 -25 -226 22 -4 6
3 4 17 -5 13 -9 31 -17 40 -17 32 0 26 25 -18 65 -38 36 -43 45 -43 84 0 35 6
48 31 72 26 24 40 29 81 29 44 0 55 -4 82 -34z"/>
<path d="M6768 7826 c3 -116 0 -180 -7 -194 -6 -12 -36 -36 -66 -54 -56 -33
-68 -48 -39 -48 32 0 94 -23 94 -36 0 -24 -32 -24 -74 1 -71 41 -76 34 -76
-115 l0 -129 56 -12 c33 -7 86 -32 132 -61 86 -54 112 -65 121 -50 3 6 5 -47
4 -117 l-3 -127 103 -105 c81 -83 111 -122 147 -191 25 -48 48 -84 51 -80 4 4
16 36 28 72 66 198 68 543 5 735 -41 124 -138 315 -205 405 -59 80 -221 250
-257 269 -16 9 -17 -1 -14 -163z"/>
<path d="M4979 7757 c0 -1 -1 -23 -2 -50 l-2 -47 100 0 c55 0 105 4 112 8 6 4
13 25 15 47 l3 40 -112 2 c-62 1 -113 1 -114 0z"/>
<path d="M5719 7616 c-2 -63 -8 -118 -12 -123 -5 -4 -25 2 -45 14 -32 18 -37
26 -40 63 -3 35 -6 40 -20 34 -67 -28 -97 -33 -197 -34 l-111 0 -1 -55 c-1
-30 -4 -59 -8 -65 -9 -15 -254 -13 -283 3 -13 6 -36 35 -50 62 l-27 50 -110 5
c-90 5 -116 10 -145 28 l-35 22 -10 -42 c-11 -45 -33 -65 -59 -55 -13 5 -16
22 -16 87 l0 80 -32 0 c-18 0 -50 3 -72 7 l-38 6 6 -54 c3 -30 8 -77 12 -106
5 -46 4 -53 -16 -63 -28 -15 -46 0 -65 56 -7 21 -20 43 -27 48 -22 14 -67 -2
-99 -33 -39 -40 -46 -87 -20 -144 27 -59 26 -84 -2 -127 -28 -41 -26 -53 19
-100 42 -44 69 -110 45 -110 -5 0 -12 13 -16 29 -8 37 -45 68 -89 77 -20 3
-36 10 -36 15 0 5 12 28 27 50 25 38 26 43 12 67 -10 19 -24 28 -45 30 -27 3
-38 -5 -83 -57 l-52 -60 3 -81 3 -82 38 -13 c21 -7 44 -20 50 -29 28 -36 120
-48 163 -19 24 15 27 15 54 0 22 -14 54 -17 154 -17 107 0 125 -2 120 -15 -5
-12 -29 -15 -130 -15 l-124 0 0 -25 c0 -22 -4 -25 -40 -25 -34 0 -41 4 -46 25
-6 23 -11 25 -58 25 -35 0 -66 8 -98 25 -56 30 -88 32 -88 7 0 -36 76 -117
138 -147 28 -14 32 -21 32 -56 0 -51 23 -60 127 -52 l78 6 -3 49 c-4 42 -1 52
23 73 25 24 30 25 184 25 l158 0 74 76 c41 42 89 82 107 90 38 17 357 19 400
3 13 -5 58 -42 99 -82 l75 -72 191 -5 c106 -3 200 -2 210 3 20 9 23 -3 5 -21
-16 -16 -380 -17 -411 -1 -12 7 -56 45 -98 85 l-77 74 -188 0 -189 0 -86 -86
-87 -87 -170 2 -170 2 -15 -30 c-8 -16 -12 -32 -9 -35 3 -3 72 -6 154 -6 92 0
148 -4 148 -10 0 -6 -59 -10 -156 -10 -138 0 -155 -2 -150 -16 3 -9 6 -18 6
-20 0 -2 85 -4 189 -4 l189 0 109 115 110 115 129 0 c151 0 141 5 268 -123 49
-49 99 -93 113 -98 13 -5 146 -9 294 -9 l269 0 0 35 c0 49 32 85 60 67 30 -18
37 -16 96 35 46 39 54 52 54 81 0 31 -2 33 -27 28 -16 -3 -65 -8 -109 -11 -73
-6 -83 -9 -93 -31 -13 -28 -41 -31 -78 -7 -22 15 -53 17 -239 15 -141 -2 -214
1 -214 8 0 6 45 10 121 10 77 0 118 4 114 10 -4 6 29 10 93 10 86 0 103 3 126
21 26 20 28 20 53 4 22 -15 42 -17 124 -12 54 3 103 8 108 12 12 7 13 154 2
195 -9 31 -37 38 -46 11 -7 -23 -20 -27 -30 -11 -3 6 -20 10 -36 10 -27 0
-109 44 -109 59 0 10 29 49 56 77 31 30 30 71 -1 66 -98 -17 -138 -7 -171 43
-13 20 -20 23 -34 15 -52 -28 -98 1 -107 68 -4 32 -1 44 16 61 28 28 85 28
108 1 24 -27 33 -9 33 68 l0 62 -99 0 -99 0 -3 -114z m-278 -258 l39 -31 174
0 c153 1 178 -2 205 -18 25 -15 31 -26 31 -52 0 -45 25 -124 46 -148 10 -11
12 -19 6 -19 -14 0 -59 69 -68 104 l-6 26 -224 0 c-205 0 -228 2 -264 20 -36
18 -59 20 -281 20 -221 0 -243 -2 -268 -19 -23 -17 -48 -19 -211 -22 -142 -1
-191 -5 -209 -17 -23 -14 -23 -13 4 22 17 23 35 36 49 35 19 -1 19 -2 -4 -9
-15 -5 48 -8 153 -9 170 -1 179 0 208 22 29 21 40 22 270 25 l240 4 44 -26 44
-26 227 2 226 3 -22 28 -21 27 -182 0 -182 0 -35 29 c-34 28 -38 28 -202 35
-92 4 -216 4 -274 0 -98 -6 -109 -9 -139 -35 l-33 -29 -200 0 c-183 0 -201 -2
-205 -17 -3 -10 -5 -3 -6 15 l-1 32 208 0 208 0 34 35 33 34 275 -5 275 -5 38
-31z m-36 -230 l60 -48 243 0 c133 0 242 -4 242 -8 0 -11 -181 -22 -354 -22
-125 0 -129 1 -162 28 -96 79 -67 72 -321 72 l-229 0 -35 -36 c-59 -62 -69
-64 -272 -64 -196 0 -277 7 -277 23 0 6 67 7 193 3 246 -9 286 -2 347 60 l45
45 230 -3 230 -3 60 -47z"/>
<path d="M3818 7695 c-33 -18 -52 -72 -39 -107 13 -33 58 -68 88 -68 88 0 125
125 50 170 -38 23 -62 24 -99 5z"/>
<path d="M4740 7692 c-42 -21 -47 -53 -10 -63 14 -4 60 -7 103 -8 l77 -1 0 39
c0 32 -4 40 -22 45 -43 11 -113 6 -148 -12z"/>
<path d="M5298 7698 c-16 -12 -22 -29 -19 -55 1 -10 33 -13 125 -13 141 0 164
10 121 50 -21 19 -38 23 -117 27 -68 4 -97 1 -110 -9z"/>
<path d="M6305 7690 c-44 -17 -61 -67 -40 -116 33 -79 134 -70 160 14 10 33
-13 80 -46 97 -31 17 -45 18 -74 5z"/>
<path d="M5093 7593 c-89 -3 -123 -7 -123 -16 0 -7 9 -31 20 -54 l19 -43 126
0 125 0 0 50 c0 38 -4 52 -19 60 -11 5 -21 9 -23 8 -2 -1 -58 -4 -125 -5z"/>
<path d="M6505 7469 c-21 -11 -52 -32 -68 -47 -37 -34 -107 -121 -107 -132 0
-5 21 0 46 11 25 12 48 18 51 15 3 -3 -11 -21 -32 -40 -20 -19 -34 -40 -30
-46 9 -15 -18 -12 -41 5 -10 8 -23 15 -28 15 -14 0 1 -282 15 -291 10 -6 10
-11 -2 -25 -8 -9 -13 -19 -11 -21 2 -2 -14 -18 -34 -34 -38 -30 -63 -58 -64
-71 0 -5 25 -8 55 -8 54 0 57 2 108 53 61 62 113 89 182 95 101 8 205 -38 324
-144 45 -40 90 -58 119 -47 9 4 -6 25 -49 69 l-63 63 3 93 c2 83 0 94 -17 103
-10 6 -47 31 -81 57 -35 26 -82 53 -104 60 -23 6 -47 18 -54 26 -9 11 -13 5
-18 -30 -4 -25 -5 -69 -3 -99 l3 -54 -32 -3 c-37 -4 -40 7 -24 66 13 43 17
344 5 364 -8 15 -13 14 -49 -3z"/>
<path d="M3676 7424 c-4 -14 -6 -122 -6 -240 l1 -216 34 -14 c19 -8 39 -14 45
-14 6 0 10 42 10 113 l0 113 33 30 c17 17 44 38 60 47 45 28 35 79 -27 145
-39 42 -76 62 -114 62 -24 0 -31 -5 -36 -26z"/>
<path d="M3544 7187 c-133 -48 -144 -56 -145 -120 -1 -28 -2 -71 -3 -95 0 -24
3 -41 9 -40 6 2 61 30 123 63 l112 59 0 83 c0 46 -1 83 -2 82 -2 0 -44 -15
-94 -32z"/>
<path d="M3836 7177 l-28 -23 1 -114 c1 -63 3 -115 4 -116 3 -3 106 24 117 31
15 10 13 173 -2 172 -50 -2 -58 3 -58 33 0 23 5 30 19 30 11 0 27 -7 35 -16 9
-8 16 -11 16 -5 0 13 -33 31 -57 31 -10 0 -31 -10 -47 -23z"/>
<path d="M3482 6904 c-54 -20 -106 -71 -122 -118 -20 -61 3 -142 54 -191 68
-66 106 -80 216 -80 72 0 104 4 132 18 154 77 140 269 -25 351 -73 36 -186 45
-255 20z"/>
<path d="M4980 6897 c0 -22 3 -22 121 -23 74 -1 125 -6 132 -13 8 -8 -25 -11
-125 -11 -100 0 -138 3 -141 13 -3 7 -41 -24 -95 -77 l-90 -89 -309 -1 c-169
-1 -309 -5 -310 -9 -2 -4 -3 -23 -3 -42 l0 -35 126 0 c111 0 131 -3 165 -22
21 -12 45 -34 51 -50 13 -28 23 -35 30 -20 2 5 25 25 51 45 44 33 55 37 110
37 34 0 69 -5 77 -10 11 -7 37 14 112 94 l97 104 135 -2 134 -1 112 -107 113
-107 38 20 c51 25 82 24 116 -5 21 -19 25 -27 17 -36 -9 -9 -17 -9 -32 -1 -32
17 -73 13 -117 -12 -34 -19 -41 -29 -49 -70 -12 -60 4 -93 51 -106 62 -17 73
0 53 84 -14 59 9 78 92 79 58 1 68 5 122 44 l59 42 121 0 121 0 -3 43 -4 42
-294 0 c-196 0 -297 4 -302 11 -4 5 -16 17 -28 25 -12 8 -45 35 -73 61 -29 26
-60 53 -69 60 -10 7 -25 25 -35 41 l-17 27 -130 0 c-128 0 -130 0 -130 -23z"/>
<path d="M6485 6876 c-79 -34 -115 -95 -115 -194 0 -54 50 -127 114 -167 43
-26 57 -30 110 -27 73 3 146 35 146 63 0 16 7 19 50 19 40 0 56 5 74 23 20 20
23 30 17 63 -18 94 -65 149 -175 204 -48 24 -72 30 -125 30 -36 -1 -79 -7 -96
-14z"/>
<path d="M6110 6701 c0 -34 -7 -77 -14 -96 l-15 -35 -129 0 c-116 0 -131 -2
-147 -20 -20 -22 -20 -22 14 -40 22 -11 23 -15 19 -101 -4 -81 -7 -91 -33
-119 -16 -16 -27 -31 -24 -33 2 -2 26 -19 53 -37 44 -30 57 -33 120 -34 39 0
81 5 93 12 16 9 24 9 29 1 4 -7 24 -9 52 -6 40 4 53 13 138 98 52 52 94 97 94
101 0 4 -34 31 -76 60 -104 72 -120 85 -112 93 15 15 71 -9 121 -52 28 -25 77
-57 107 -72 52 -25 63 -26 217 -26 124 0 163 -3 163 -12 0 -10 -43 -13 -177
-14 -98 -1 -182 -2 -188 -4 -5 -1 -16 -3 -24 -3 -8 -1 -54 -43 -102 -93 -108
-112 -126 -119 -311 -109 -127 7 -128 8 -183 45 l-55 38 -65 -26 c-56 -23 -80
-27 -163 -27 -111 0 -155 -16 -184 -66 -18 -31 -59 -182 -97 -357 -24 -109
-45 -335 -37 -382 4 -16 24 -50 45 -75 l39 -45 -5 110 c-7 129 8 199 83 407
41 111 50 128 75 139 38 15 48 5 27 -29 -34 -54 -79 -158 -106 -242 -24 -76
-27 -100 -27 -230 0 -88 6 -166 14 -198 13 -51 16 -54 106 -116 62 -42 97 -60
103 -54 7 7 15 2 24 -15 7 -13 49 -53 93 -87 44 -35 114 -94 157 -132 54 -49
84 -68 103 -68 23 0 26 -2 15 -15 -11 -13 -9 -26 11 -74 34 -87 41 -95 84 -87
63 12 75 33 75 136 0 52 4 90 10 90 5 0 7 13 4 30 -7 35 8 40 38 13 17 -15 20
-15 48 12 38 36 49 78 36 127 -8 32 -22 46 -73 79 -71 46 -71 46 -5 127 21 27
38 40 44 34 6 -6 -2 -22 -21 -43 -17 -18 -31 -39 -31 -46 0 -7 21 -26 48 -43
l47 -29 8 57 c4 31 19 116 34 187 30 155 28 241 -11 373 -14 48 -30 106 -36
129 -11 45 -16 48 -97 58 -34 4 -53 3 -53 -3 0 -6 15 -30 33 -54 58 -75 90
-170 95 -279 8 -185 -49 -296 -205 -399 -26 -17 -37 -22 -23 -10 14 11 46 39
72 61 33 27 59 63 85 116 37 75 38 80 38 187 0 81 -5 125 -18 163 -19 53 -70
133 -86 133 -5 0 -14 -13 -20 -29 -11 -25 -9 -34 23 -87 43 -71 60 -146 54
-235 -9 -119 -68 -204 -190 -270 -56 -30 -71 -34 -138 -33 -115 0 -214 54
-281 150 -34 50 -69 144 -68 183 0 16 7 4 18 -34 34 -117 79 -182 164 -238
107 -71 223 -70 336 3 95 62 141 149 141 269 0 84 -21 155 -61 211 l-31 42 18
40 c10 23 14 42 8 47 -21 19 -143 60 -199 66 -152 17 -313 -55 -389 -173 -43
-67 -59 -135 -54 -236 3 -75 9 -101 33 -149 36 -72 106 -139 188 -177 61 -30
62 -30 26 -30 -45 0 -144 63 -189 120 -66 84 -99 218 -81 331 20 122 125 265
233 318 24 11 77 26 118 32 63 10 88 9 154 -4 43 -9 96 -26 118 -37 47 -24 52
-22 39 12 -14 38 -56 66 -119 79 -82 17 -279 6 -376 -20 -43 -12 -81 -19 -84
-16 -24 24 130 64 273 72 125 6 241 -13 287 -47 l27 -20 25 24 c18 16 42 25
80 29 72 7 116 29 185 91 74 67 98 86 86 67 -13 -22 -123 -124 -157 -145 -33
-21 -133 -47 -153 -40 -12 5 -45 -30 -45 -47 0 -4 22 -9 48 -13 56 -7 108 8
123 35 5 11 34 38 63 62 29 23 81 66 115 95 l62 52 125 0 c98 0 129 3 140 15
29 28 73 19 113 -25 l37 -41 41 30 c23 16 53 46 68 65 15 20 33 36 40 36 18 0
45 -34 45 -58 0 -29 32 -36 125 -27 l74 7 -6 31 c-8 46 -96 254 -159 378 -76
149 -150 228 -175 188 -4 -7 -18 -14 -31 -14 -20 0 -23 -6 -26 -47 -3 -42 0
-47 25 -61 15 -8 46 -24 68 -36 21 -12 56 -21 77 -21 74 0 48 -21 -57 -46 -16
-4 -15 -2 4 9 21 13 12 15 -104 21 l-127 8 -33 -32 c-33 -32 -133 -70 -184
-70 -79 0 -192 74 -232 151 -10 21 -22 59 -26 84 -9 70 -16 75 -121 82 l-92 6
0 -62z m54 -252 c34 -27 37 -91 4 -126 -31 -33 -95 -32 -132 2 -83 77 37 195
128 124z m93 -345 c3 -9 -29 -25 -74 -39 -12 -3 -93 -1 -180 4 -239 16 -394
-9 -555 -89 -42 -21 -79 -36 -82 -32 -3 3 -6 14 -6 24 0 14 20 28 75 53 140
64 171 69 475 70 171 1 284 6 300 13 28 12 42 11 47 -4z m-387 -304 c14 -4 -5
-5 -46 -2 -95 6 -158 -15 -227 -78 -28 -26 -62 -66 -75 -89 l-23 -41 23 -9
c18 -8 26 -5 38 12 36 52 105 118 144 137 61 29 168 28 239 -3 95 -43 146
-127 147 -244 1 -252 -264 -372 -458 -208 -46 38 -92 138 -92 197 0 43 -3 50
-26 58 -14 6 -30 7 -36 4 -19 -12 1 48 35 104 70 117 157 171 272 170 33 0 71
-4 85 -8z"/>
<path d="M5723 5689 c-50 -24 -109 -87 -130 -136 -44 -108 13 -243 124 -290
40 -16 122 -17 174 -1 138 41 205 232 123 350 -61 89 -196 124 -291 77z m186
-78 c49 -31 68 -138 33 -181 -17 -21 -27 -23 -104 -23 -148 1 -185 27 -158
109 15 43 79 111 112 117 34 6 90 -4 117 -22z"/>
<path d="M4994 6728 c-50 -37 -114 -102 -136 -136 -17 -27 -18 -37 -9 -64 25
-72 6 -170 -40 -202 -13 -9 -43 -16 -67 -16 -38 0 -50 5 -84 40 -42 42 -49 83
-17 103 29 18 49 1 49 -41 0 -21 5 -43 12 -50 16 -16 63 -15 76 1 21 25 37
105 27 133 -12 32 -67 64 -110 64 -68 0 -155 -84 -155 -150 0 -50 48 -122 103
-154 39 -23 54 -26 142 -26 l97 0 38 -37 c20 -21 46 -63 58 -94 32 -86 89
-360 105 -504 24 -211 1 -304 -88 -363 -26 -17 -51 -32 -56 -34 -5 -2 -20 -48
-34 -103 -14 -55 -33 -130 -44 -166 l-19 -67 55 -53 c30 -30 58 -61 63 -69 4
-8 2 -46 -6 -85 -7 -38 -13 -111 -14 -161 0 -105 -12 -131 -53 -120 -29 7 -37
39 -13 53 9 5 15 40 20 108 4 55 9 120 12 145 4 43 2 47 -42 93 -25 27 -47 47
-49 45 -5 -6 -64 -266 -75 -328 -6 -36 -16 -82 -21 -102 l-10 -38 -119 0
c-113 0 -120 1 -120 20 0 11 5 20 10 20 6 0 10 -3 10 -7 0 -5 41 -8 90 -8 83
0 91 2 95 20 41 174 52 245 40 245 -8 0 -16 -4 -20 -10 -3 -5 -45 -35 -93 -66
-128 -84 -209 -154 -216 -188 -3 -15 -3 -73 1 -128 l6 -100 53 4 c35 3 66 14
93 31 39 26 91 36 91 18 0 -5 -12 -12 -27 -16 -33 -8 -63 -33 -63 -52 0 -10
19 -13 74 -13 54 0 77 -4 86 -15 7 -9 11 -17 9 -19 -2 -1 -51 0 -109 4 -72 4
-108 3 -115 -5 -5 -6 -26 -16 -45 -21 l-35 -10 1 -112 c1 -106 2 -114 24 -130
13 -9 91 -62 173 -118 l151 -101 95 65 c134 90 130 85 120 135 -5 23 -8 107
-8 187 0 80 -2 157 -6 171 -7 29 -12 24 127 134 l58 46 67 -54 c38 -30 73 -60
79 -68 8 -10 9 -47 3 -124 -4 -60 -8 -155 -9 -210 0 -55 -4 -106 -9 -114 -7
-11 15 -31 97 -88 l106 -73 65 37 c36 20 105 63 153 94 99 67 93 51 102 256
l6 113 -37 0 c-28 0 -44 8 -68 33 -18 17 -53 47 -79 65 -29 21 -46 40 -46 53
0 17 4 20 24 15 14 -3 58 1 98 9 40 9 93 15 118 13 40 -2 45 0 50 22 9 37 -6
81 -37 107 -16 13 -84 61 -153 108 -69 47 -136 93 -149 102 -24 17 -24 17 -19
-3 3 -12 16 -76 29 -143 l24 -122 80 6 c44 4 85 8 91 10 6 2 17 -1 25 -6 29
-18 -9 -29 -118 -36 l-110 -6 -11 34 c-6 19 -25 106 -42 194 -17 88 -37 184
-46 214 l-15 54 -35 -34 c-55 -52 -56 -58 -34 -151 10 -46 22 -111 26 -145 6
-60 5 -63 -15 -63 -13 0 -22 8 -26 23 -9 39 -48 231 -52 259 -4 22 5 36 57 85
l62 58 -40 140 c-22 77 -45 164 -52 193 -10 45 -18 57 -55 82 -24 16 -52 42
-63 57 l-20 27 -7 -69 c-3 -39 -7 -79 -8 -90 -1 -13 -9 -20 -22 -20 -29 0 -31
61 -5 143 13 43 24 116 30 204 12 172 83 510 130 623 18 43 16 51 -28 74 -25
13 -30 41 -8 41 8 0 26 -14 41 -32 l27 -32 36 20 c30 16 52 19 146 16 l111 -3
76 42 c42 22 83 52 90 65 16 32 15 119 -2 140 -16 19 -81 14 -103 -9 -8 -8
-30 -43 -48 -78 -24 -46 -41 -65 -61 -72 -44 -14 -97 1 -134 38 -32 32 -33 36
-33 112 0 50 5 84 13 92 10 10 -5 29 -73 95 l-86 83 -69 6 c-118 11 -150 9
-181 -15z"/>
<path d="M2490 6695 c-41 -19 -96 -39 -122 -45 -45 -11 -48 -14 -48 -45 0 -18
-3 -40 -6 -48 -3 -10 2 -18 15 -22 12 -3 24 -18 27 -33 4 -15 11 -32 16 -39
11 -13 -11 -72 -34 -91 -12 -10 -17 -10 -27 1 -8 11 -5 19 14 37 36 34 31 47
-6 16 -17 -14 -35 -23 -41 -20 -6 4 -6 -1 1 -14 9 -16 5 -27 -20 -58 -57 -71
-67 -124 -23 -124 10 0 12 -30 7 -155 -5 -118 -3 -158 7 -170 18 -22 50 -19
50 4 0 11 15 32 33 47 l32 27 6 126 6 126 1 -145 c1 -80 4 -159 8 -175 5 -30
6 -30 66 -28 53 2 61 -1 66 -19 4 -17 11 -19 43 -15 20 3 42 0 48 -6 8 -8 11
-7 11 4 0 12 18 14 110 11 79 -3 110 -1 110 7 0 7 -4 9 -10 6 -12 -8 -13 8 -1
20 5 6 12 35 15 66 8 64 7 64 -94 126 -145 89 -346 216 -355 225 -14 14 91
-44 210 -116 55 -34 123 -72 150 -85 28 -13 58 -27 67 -32 29 -15 35 -11 42
29 3 21 12 51 20 68 13 25 13 43 0 140 -8 60 -20 129 -27 152 l-12 41 -109
-79 c-60 -44 -116 -80 -125 -80 -20 1 31 48 120 110 71 50 159 128 159 141 0
5 -7 9 -15 9 -13 0 -45 82 -45 117 0 9 -16 13 -52 13 -29 0 -89 2 -133 5 -75
4 -85 2 -155 -30z"/>
<path d="M3192 6678 c-67 -62 -97 -97 -88 -106 6 -5 222 45 234 54 9 6 -31 65
-57 84 l-30 21 -59 -53z"/>
<path d="M7545 6723 c-117 -9 -125 -12 -125 -43 0 -16 5 -32 10 -35 26 -16
-15 -111 -98 -229 -18 -25 -33 -54 -33 -64 -1 -28 65 -207 76 -208 6 -1 22 -4
38 -8 16 -4 27 -2 27 4 0 5 7 10 15 10 8 0 15 4 15 9 0 5 7 17 17 26 14 14 14
18 2 27 -12 8 -11 9 1 5 22 -7 55 18 39 29 -7 4 -15 2 -17 -4 -2 -7 -8 -12
-14 -12 -6 0 -5 7 3 16 7 9 22 14 36 11 12 -2 20 0 17 4 -3 5 2 9 12 9 13 0
14 3 5 14 -10 12 -8 13 10 9 15 -4 20 -3 15 5 -4 7 -2 12 4 12 6 0 32 21 58
46 26 26 41 44 35 40 -7 -4 -13 -3 -13 2 0 5 11 12 25 14 13 3 22 2 20 -3 -3
-4 13 -10 36 -14 32 -6 43 -3 53 11 14 18 53 13 41 -6 -3 -5 0 -10 7 -10 9 0
9 -3 -2 -10 -8 -5 -38 -10 -67 -10 -28 0 -63 -4 -77 -10 -37 -14 -188 -161
-182 -177 3 -7 -1 -13 -10 -13 -8 0 -13 -4 -9 -9 3 -5 -4 -12 -15 -16 -11 -3
-29 -20 -42 -37 -12 -18 -15 -28 -7 -23 7 5 91 60 184 122 94 62 180 113 192
113 16 0 20 5 16 20 -4 14 0 20 10 20 9 0 21 8 27 18 8 14 9 12 6 -11 -3 -15
-1 -25 5 -22 5 4 9 2 9 -3 0 -14 29 -10 35 6 4 10 0 13 -15 9 -15 -4 -20 0
-20 14 0 10 6 19 13 19 7 1 5 6 -5 14 -10 7 -18 17 -18 21 0 5 -7 16 -15 25
-25 28 -25 55 1 85 16 19 22 35 18 50 -3 13 -1 32 5 43 9 18 6 21 -37 32 -26
6 -71 24 -99 41 -54 30 -88 33 -218 22z"/>
<path d="M7349 6703 c-9 -2 -27 -37 -44 -81 -15 -42 -34 -95 -42 -116 -11 -32
-12 -49 -3 -88 l12 -48 25 38 c14 20 45 64 68 97 23 33 47 74 53 92 9 28 8 32
-11 37 -15 4 -30 -3 -49 -21 l-28 -27 11 33 c6 18 20 38 30 44 11 7 19 20 19
29 0 18 -9 20 -41 11z"/>
<path d="M2926 6665 c-11 -30 -7 -45 11 -38 11 4 -1 -19 -29 -59 -44 -63 -46
-68 -36 -105 5 -21 15 -73 20 -115 8 -54 15 -78 24 -78 8 0 14 9 14 21 0 11
16 54 35 96 19 42 35 86 35 97 0 19 -55 185 -65 194 -1 2 -5 -4 -9 -13z"/>
<path d="M2994 6345 c-39 -81 -54 -156 -35 -178 7 -9 43 -16 97 -20 91 -7 100
-9 89 -26 -4 -7 -46 -11 -104 -11 -92 0 -99 1 -108 23 -9 19 -13 9 -32 -69
-28 -122 -28 -154 2 -154 108 0 186 -86 136 -151 l-19 -24 0 43 c0 24 -5 52
-10 62 -11 21 -67 40 -117 40 -33 0 -33 0 -33 -49 0 -44 4 -54 38 -85 27 -26
46 -36 72 -37 l35 -1 -35 -10 c-28 -8 -36 -7 -47 8 -8 12 -13 13 -13 5 0 -11
-3 -11 -15 -1 -28 23 -35 -33 -35 -296 l0 -254 40 0 c44 0 53 10 64 75 4 22
30 81 56 130 40 74 68 109 149 188 55 53 105 97 111 97 5 0 10 11 10 25 0 19
5 25 21 25 12 0 28 -8 35 -17 11 -15 13 9 14 153 l0 171 -79 56 c-43 32 -83
57 -88 57 -24 0 -37 31 -26 61 10 26 8 31 -13 48 -13 10 -41 55 -64 99 -22 44
-44 84 -50 87 -6 4 -26 -27 -46 -70z"/>
<path d="M7759 6273 c-1 -5 -1 -11 0 -15 0 -5 -2 -7 -6 -7 -19 3 -34 -2 -29
-9 3 -5 0 -9 -7 -9 -19 0 -88 -44 -82 -52 2 -4 -1 -8 -8 -8 -20 0 -97 -55 -91
-64 3 -5 7 -9 10 -9 3 0 2 5 -1 11 -4 6 -1 9 6 8 8 -1 22 1 32 6 12 5 22 2 32
-11 7 -10 9 -21 5 -24 -5 -3 -5 -12 1 -20 7 -13 10 -13 18 -1 5 8 11 9 15 3 4
-7 17 -7 36 -2 20 6 30 5 34 -3 2 -7 5 -4 5 6 1 9 8 17 16 17 9 0 18 7 21 15
7 17 59 21 69 5 3 -5 14 -10 23 -10 15 0 15 2 2 10 -11 7 -11 10 -2 10 7 0 10
5 7 10 -3 6 1 10 9 10 9 0 16 -5 16 -11 0 -17 43 -48 68 -49 41 0 28 41 -30
91 -102 88 -165 126 -169 102z"/>
<path d="M6972 6087 l-72 -72 0 -137 c0 -80 4 -139 10 -143 6 -3 10 -23 10
-43 0 -36 3 -40 63 -74 88 -51 174 -131 182 -169 4 -18 22 -58 41 -89 19 -32
34 -65 34 -74 0 -39 -33 -8 -90 83 -62 101 -141 182 -236 245 -48 31 -76 94
-54 120 15 19 20 268 5 273 -35 11 -78 48 -92 78 l-17 35 -122 0 -122 0 -44
-36 c-67 -56 -135 -121 -152 -146 -25 -36 -21 -156 10 -258 39 -130 41 -220
11 -380 -14 -74 -29 -160 -32 -190 l-6 -55 158 -78 c87 -42 220 -110 296 -149
l138 -71 222 2 c122 1 224 4 226 7 11 10 21 274 23 594 l3 345 -102 -105 c-56
-57 -105 -102 -107 -99 -3 3 42 54 100 112 103 106 105 108 98 145 -10 56 -29
86 -67 107 -34 18 -36 18 -62 1 -26 -17 -26 -17 -16 2 18 34 92 39 130 8 12
-9 13 2 7 75 -4 47 -10 98 -14 113 l-8 28 -119 1 -120 2 -14 33 c-8 17 -17 32
-20 32 -3 0 -39 -33 -79 -73z m93 -943 c14 -6 44 -52 46 -71 2 -19 24 -33 53
-34 l31 -1 -36 -7 c-21 -4 -48 -20 -65 -39 -44 -48 -75 -51 -109 -10 -18 21
-36 32 -52 32 -18 -1 -19 -1 -3 3 16 4 20 12 20 48 0 36 5 47 28 64 28 21 58
26 87 15z"/>
<path d="M4796 5065 c-54 -49 -68 -67 -63 -84 6 -25 0 -27 -24 -5 -23 20 -22
21 -176 -113 -199 -173 -203 -178 -214 -259 -27 -203 -27 -285 -1 -284 4 0 21
23 37 51 48 82 178 190 342 284 28 16 37 33 64 114 18 53 33 103 34 111 1 8 8
29 14 45 16 38 62 197 59 200 -2 2 -34 -25 -72 -60z"/>
<path d="M5362 5110 c3 -8 24 -76 48 -150 23 -74 53 -169 66 -210 l24 -75 143
-95 c143 -95 267 -204 267 -234 0 -22 13 -20 37 7 27 30 43 61 43 87 0 48
-105 267 -132 276 -11 3 -28 19 -38 36 -10 17 -39 47 -64 68 -72 60 -183 140
-193 140 -5 0 -25 -16 -44 -36 -18 -20 -43 -40 -54 -46 -11 -6 1 10 28 34 26
25 47 50 47 56 0 10 -99 96 -163 142 -19 13 -20 13 -15 0z"/>
<path d="M4057 5058 c-30 -29 -61 -66 -67 -81 -13 -38 2 -96 36 -137 34 -39
60 -39 68 1 3 17 10 28 15 25 13 -8 11 -56 -3 -56 -6 0 -3 -5 7 -11 13 -8 17
-24 17 -79 l0 -69 35 6 c28 4 35 2 35 -11 0 -9 -8 -23 -18 -32 -14 -11 -18
-28 -17 -72 2 -52 5 -60 40 -95 24 -24 41 -35 48 -28 9 9 29 176 28 242 0 33
6 42 77 102 42 36 99 85 126 109 l49 44 -37 36 c-58 56 -99 72 -168 64 -66 -7
-78 -2 -154 55 -28 22 -53 39 -56 39 -2 0 -30 -24 -61 -52z"/>
<path d="M2881 4353 c-57 -53 -99 -99 -92 -101 6 -2 9 -8 6 -12 -10 -16 29
-27 100 -29 39 -1 79 -4 90 -8 38 -10 65 -46 86 -115 15 -47 27 -68 38 -68 10
0 12 -3 5 -8 -9 -5 -8 -11 2 -20 12 -11 14 -10 14 3 0 9 5 13 10 10 6 -3 20
-3 33 1 l22 8 -25 7 -25 7 26 1 c22 1 26 5 21 26 -2 15 0 25 7 25 6 0 11 -7
11 -15 0 -8 5 -15 10 -15 6 0 10 9 10 19 0 14 -8 21 -27 24 -26 4 -25 4 5 6
30 1 33 3 26 24 -4 12 -7 28 -7 35 0 6 -5 12 -10 12 -5 0 -7 -7 -3 -15 3 -8 1
-15 -4 -15 -6 0 -10 7 -10 16 0 9 -5 12 -12 8 -10 -5 -10 -4 -1 6 14 15 6 40
-13 40 -14 0 -18 25 -14 84 1 21 -6 35 -27 53 -30 25 -140 103 -145 103 -2 0
-50 -44 -107 -97z"/>
<path d="M5782 4260 c-76 -11 -115 -29 -106 -49 3 -9 7 -21 7 -28 0 -7 5 -10
10 -6 5 3 22 -4 38 -16 17 -13 43 -21 67 -21 38 0 40 2 46 38 8 51 8 92 -1 91
-5 -1 -32 -5 -61 -9z"/>
<path d="M5069 4214 l-64 -46 3 -157 c3 -203 6 -215 50 -257 49 -46 65 -49
106 -22 60 39 66 59 73 246 3 93 3 181 -1 195 -6 24 -76 87 -96 87 -4 0 -36
-21 -71 -46z"/>
<path d="M6705 3750 c4 -13 3 -20 -2 -17 -5 3 -18 -17 -28 -46 -35 -100 -114
-258 -180 -359 -88 -134 -159 -222 -280 -347 l-100 -104 154 79 c190 96 283
156 382 245 153 137 263 259 373 413 53 75 77 123 37 78 -22 -27 -51 -31 -30
-5 13 15 12 15 -8 3 -12 -8 -19 -18 -17 -22 3 -4 0 -8 -5 -8 -6 0 -11 4 -11
10 0 5 -7 6 -17 3 -11 -4 -14 -3 -9 5 5 8 -2 10 -25 5 -22 -4 -30 -3 -25 5 4
7 -10 13 -39 17 -25 4 -43 11 -40 15 2 4 17 5 32 2 16 -2 25 -1 21 3 -4 4 -36
8 -70 7 -49 0 -56 2 -33 8 31 8 25 11 -36 15 -14 1 -32 5 -39 10 -9 6 -10 2
-5 -15z"/>
<path d="M5001 3706 c-6 -7 -58 -46 -115 -86 l-103 -72 -7 -66 c-3 -37 -6
-118 -6 -181 l0 -114 118 6 c181 11 198 14 215 49 l15 30 18 -31 c10 -17 23
-31 29 -31 5 0 69 -7 140 -15 72 -8 140 -15 153 -15 22 0 22 0 22 179 l0 179
-131 86 -130 86 -45 -31 -45 -31 -33 20 c-18 11 -44 27 -58 36 -21 14 -27 14
-37 2z"/>
<path d="M5644 3637 l-99 -62 -2 -468 -3 -469 36 -42 36 -43 71 39 72 39 -5
287 c-5 303 -7 315 -54 345 -45 30 -32 84 24 102 9 3 22 17 28 31 14 29 17
290 4 298 -5 3 -53 -23 -108 -57z"/>
<path d="M3470 3643 c-13 -16 -61 -69 -107 -119 l-83 -91 118 -114 c102 -100
188 -172 297 -246 41 -28 75 -47 260 -143 l160 -83 -55 49 c-165 147 -260 251
-364 401 -55 79 -151 261 -177 336 -7 20 -16 37 -19 37 -4 0 -17 -12 -30 -27z"/>
<path d="M4540 3141 c0 -414 -3 -530 -12 -534 -7 -2 4 -12 24 -22 43 -21 61
-15 126 41 l37 32 0 430 c0 237 -2 433 -5 436 -3 3 -33 -1 -65 -9 -90 -21 -98
-17 -21 10 68 25 83 32 75 38 -2 2 -20 14 -39 28 -19 13 -54 37 -77 52 l-43
27 0 -529z"/>
<path d="M4880 3136 l-105 -11 -3 -165 c-2 -91 0 -188 3 -217 l6 -52 77 49
c42 27 119 76 170 109 l93 60 127 -81 c70 -44 148 -96 173 -114 26 -19 49 -34
53 -34 3 0 6 99 6 220 l0 219 -32 5 c-170 28 -382 32 -568 12z"/>
<path d="M5085 2816 c-11 -8 -100 -66 -198 -130 -166 -108 -208 -144 -178
-154 6 -2 53 -31 104 -64 100 -66 249 -158 285 -177 20 -11 33 -5 115 45 50
31 121 74 157 96 36 22 88 56 117 76 49 36 50 38 34 58 -29 36 -352 246 -396
258 -11 2 -29 -1 -40 -8z"/>
<path d="M3640 1911 l0 -40 53 -3 52 -3 -4 -96 c-2 -53 0 -124 4 -158 7 -65
14 -70 73 -55 22 6 22 9 22 155 l0 148 53 3 52 3 3 43 3 42 -155 0 -156 0 0
-39z"/>
<path d="M4050 1760 l0 -190 135 -1 c74 -1 141 -2 148 -3 8 -1 12 13 12 39 l0
40 -102 3 -103 3 0 34 0 35 73 0 c104 0 117 5 117 46 l0 33 -92 3 -93 3 -3 32
-3 32 103 3 103 3 0 35 0 35 -147 3 -148 3 0 -191z"/>
<path d="M4553 1939 c-77 -22 -131 -114 -120 -206 17 -155 187 -235 295 -140
28 26 28 43 -1 62 -21 13 -28 13 -66 -2 -39 -15 -44 -15 -77 0 -95 46 -72 207
30 207 19 0 46 -4 59 -9 21 -8 29 -5 53 20 27 28 27 29 8 44 -42 32 -118 42
-181 24z"/>
<path d="M4903 1942 l-42 -3 0 -67 c0 -37 3 -122 6 -190 l5 -123 37 3 36 3 5
75 5 75 72 3 72 3 3 -88 3 -88 43 -3 42 -3 0 200 0 201 -29 0 c-16 0 -36 3
-45 6 -13 5 -16 -6 -18 -66 l-3 -73 -70 -1 -70 -1 0 67 c-1 37 -3 68 -5 70 -3
2 -24 2 -47 0z"/>
<path d="M5288 1944 c-5 -4 -8 -25 -8 -46 l0 -38 66 0 66 0 -5 -137 c-5 -155
-1 -179 28 -178 72 4 65 -12 65 160 l0 155 59 0 c33 0 63 4 66 10 3 5 3 24 0
42 l-6 33 -162 3 c-89 2 -165 0 -169 -4z"/>
<path d="M5710 1750 l0 -200 40 0 40 0 0 74 c0 42 5 78 11 81 6 4 26 4 44 1
30 -6 40 -17 76 -77 44 -76 51 -82 99 -77 l32 3 -40 77 -40 78 34 34 c42 42
46 95 11 147 -29 43 -79 57 -209 58 l-98 1 0 -200z"/>
<path d="M6261 1930 c-80 -34 -121 -98 -121 -190 0 -70 27 -129 75 -166 31
-23 46 -28 98 -28 117 0 191 78 191 199 0 76 -24 128 -76 163 -43 28 -126 39
-167 22z m117 -103 c63 -67 38 -177 -43 -193 -35 -6 -71 8 -92 35 -19 25 -25
84 -13 116 24 65 105 87 148 42z"/>
</g>
</svg>
